<svg width="39" height="26" viewBox="0 0 39 26" fill="none" xmlns="http://www.w3.org/2000/svg">
<path d="M38.9253 5L25.246 15.1259C23.7207 16.2521 21.6543 16.8846 19.5 16.8846C17.3457 16.8846 15.2793 16.2521 13.754 15.1259L0.07475 5C0.052 5.19006 0 5.36207 0 5.55092V19.9856C0.00258027 21.5801 0.859433 23.1088 2.38261 24.2363C3.90578 25.3638 5.97091 25.9981 8.125 26H30.875C33.0291 25.9981 35.0942 25.3638 36.6174 24.2363C38.1406 23.1088 38.9974 21.5801 39 19.9856V5.55092C39 5.36207 38.948 5.19006 38.9253 5Z" fill="black"/>
<path d="M22.9876 13.9417L38 2.91126C37.2728 2.02534 36.247 1.29206 35.0218 0.782127C33.7966 0.272196 32.4131 0.00282633 31.005 0H7.99502C6.58685 0.00282633 5.20343 0.272196 3.97819 0.782127C2.75295 1.29206 1.72724 2.02534 1 2.91126L16.0123 13.9417C16.9386 14.6195 18.1927 15 19.5 15C20.8073 15 22.0614 14.6195 22.9876 13.9417V13.9417Z" fill="black"/>
</svg>
