<svg width="37" height="31" viewBox="0 0 37 31" fill="none" xmlns="http://www.w3.org/2000/svg">
<path d="M35.4609 30.0382H35.8109L35.1402 29.04C35.5503 29.04 35.7677 28.7837 35.7708 28.4697C35.7708 28.4575 35.7708 28.4439 35.7692 28.4317C35.7692 28.004 35.5071 27.7992 34.9691 27.7992H34.0996V30.0382H34.4264V29.0628H34.8288L35.4609 30.0382ZM34.8057 28.8095H34.4264V28.0525H34.9074C35.1556 28.0525 35.4393 28.092 35.4393 28.412C35.4393 28.7791 35.1526 28.8095 34.8041 28.8095" fill="black"/>
<path d="M26.6568 26.2292H22.0211V19.086C22.0211 17.3825 21.9902 15.1906 19.6099 15.1906C17.1957 15.1906 16.8257 17.0458 16.8257 18.9632V26.2292H12.1914V11.5394H16.6422V13.5463H16.7039C17.6119 12.0202 19.2985 11.1086 21.0945 11.1738C25.7935 11.1738 26.6584 14.2152 26.6584 18.1698L26.6568 26.2292ZM6.96059 9.53098C5.47443 9.53098 4.27039 8.34627 4.27039 6.88397C4.27039 5.42166 5.47443 4.23695 6.96059 4.23695C8.44675 4.23695 9.65078 5.42166 9.65078 6.88397C9.65078 8.34627 8.44675 9.53098 6.96059 9.53098ZM9.2777 26.2292H4.63731V11.5394H9.2777V26.2292ZM28.9678 0.00172411H2.30786C1.04833 -0.0119281 0.0154166 0.981651 0 2.22097V28.5607C0.0154166 29.8015 1.04833 30.7951 2.30786 30.7814H28.9678C30.2304 30.7966 31.2679 29.803 31.2849 28.5607V2.21945C31.2664 0.9771 30.2288 -0.0164789 28.9678 0.000207128" fill="black"/>
<path d="M34.8466 26.8026C33.6687 26.8132 32.7222 27.7628 32.7345 28.9217C32.7453 30.0807 33.7104 31.0121 34.8882 30.9999C36.066 30.9893 37.0126 30.0397 37.0003 28.8808C36.9895 27.737 36.0491 26.8132 34.8882 26.8026H34.8466ZM34.8959 30.7587C33.863 30.7754 32.9627 29.9669 32.9457 28.9506C32.9287 27.9342 33.752 27.0969 34.7849 27.0802C35.8178 27.0635 36.6688 27.8736 36.6858 28.8899C36.6858 28.9005 36.6858 28.9096 36.6858 28.9202C36.7073 29.9138 35.9057 30.7375 34.8959 30.7587H34.8481Z" fill="black"/>
</svg>
