<svg width="34" height="26" viewBox="0 0 34 26" fill="none" xmlns="http://www.w3.org/2000/svg">
<path d="M30.5192 6.47234C30.5391 6.75367 30.5391 7.03633 30.5391 7.32033C30.5391 15.9962 23.5209 26 10.6916 26V25.9947C6.902 26 3.19033 24.9787 0 23.0521C0.551083 23.1147 1.105 23.1454 1.66033 23.1467C4.8025 23.1494 7.854 22.1574 10.3232 20.3308C7.33833 20.2774 4.72033 18.4455 3.80658 15.7708C4.85208 15.9602 5.92875 15.9215 6.95583 15.6588C3.70033 15.0402 1.36 12.3482 1.36 9.22296C1.36 9.19496 1.36 9.16696 1.36 9.14029C2.33042 9.64962 3.41558 9.93095 4.52625 9.96161C1.46058 8.03498 0.51425 4.19771 2.36583 1.19777C5.9075 5.29903 11.1336 7.79232 16.7422 8.05765C16.1797 5.77769 16.949 3.3884 18.7595 1.78442C21.5687 -0.7022 25.9873 -0.574202 28.6294 2.06975C30.192 1.78042 31.6894 1.24043 33.0593 0.476446C32.538 1.99642 31.4486 3.28706 29.9922 4.10838C31.3763 3.95238 32.7264 3.60439 34 3.07373C33.0636 4.39238 31.8849 5.54302 30.5192 6.47234Z" fill="black"/>
</svg>
